<svg xmlns="http://www.w3.org/2000/svg" version="1.1" xmlns:xlink="http://www.w3.org/1999/xlink" xmlns:svgjs="http://svgjs.dev/svgjs" width="1000" height="1000" viewBox="0 0 1000 1000"><rect width="1000" height="1000" fill="#ffffff"></rect><g transform="matrix(0.7,0,0,0.7,149.5760045780151,376.01464997203243)"><svg viewBox="0 0 396 140" data-background-color="#ffffff" preserveAspectRatio="xMidYMid meet" height="353" width="1000" xmlns="http://www.w3.org/2000/svg" xmlns:xlink="http://www.w3.org/1999/xlink"><g id="tight-bounds" transform="matrix(1,0,0,1,0.23986026729431842,0.24665723964170638)"><svg viewBox="0 0 395.52 139.5064060553052" height="139.5064060553052" width="395.52"><g><svg viewBox="0 0 650.6006376771223 229.47754030042762" height="139.5064060553052" width="395.52"><g transform="matrix(1,0,0,1,0,64.46884820580543)"><svg viewBox="0 0 395.52 100.53984388881676" height="100.53984388881676" width="395.52"><g><svg viewBox="0 0 395.52 100.53984388881676" height="100.53984388881676" width="395.52"><g><svg viewBox="0 0 395.52 54.22638763935068" height="54.22638763935068" width="395.52"><g transform="matrix(1,0,0,1,0,0)"><svg width="395.52" viewBox="2.55 -34.45 255.63 35.050000000000004" height="54.22638763935068" data-palette-color="#1013f1"><g class="undefined-text-0" data-fill-palette-color="primary" id="text-0"><path d="M13.35 0.6L13.35 0.6Q10.25 0.6 7.81-0.99 5.38-2.58 3.96-5.4 2.55-8.22 2.55-11.9L2.55-11.9Q2.55-15.83 3.95-18.65 5.35-21.48 7.79-22.99 10.23-24.5 13.35-24.5L13.35-24.5Q16.07-24.5 18-23.4 19.93-22.3 21.1-20.43 22.28-18.55 22.74-16.19 23.2-13.83 23-11.3L23-11.3 5.7-11.3 5.7-13.7 20.43-13.7 19.28-12.95Q19.35-14.43 19.11-15.9 18.88-17.38 18.23-18.61 17.57-19.85 16.4-20.6 15.23-21.35 13.4-21.35L13.4-21.35Q11.1-21.35 9.55-20.18 8-19 7.23-17.09 6.45-15.18 6.45-12.95L6.45-12.95 6.45-11.35Q6.45-8.85 7.21-6.88 7.98-4.9 9.5-3.75 11.03-2.6 13.35-2.6L13.35-2.6Q15.68-2.6 17.18-3.73 18.68-4.85 19-7.05L19-7.05 23.05-7.05Q22.68-4.67 21.35-2.96 20.03-1.25 17.98-0.33 15.93 0.6 13.35 0.6ZM39.27 0.6L39.27 0.6Q36.37 0.6 33.95-0.96 31.52-2.53 30.07-5.36 28.62-8.2 28.62-12.05L28.62-12.05Q28.62-15.88 30.05-18.68 31.47-21.48 33.84-22.99 36.2-24.5 39.02-24.5L39.02-24.5Q41.65-24.5 43.64-23.23 45.62-21.95 46.72-19.55 47.82-17.15 47.82-13.75L47.82-13.75 46.32-13.75Q46.32-16.13 45.39-17.75 44.45-19.38 42.95-20.21 41.45-21.05 39.72-21.05L39.72-21.05Q37.77-21.05 36.16-19.96 34.55-18.88 33.59-16.86 32.62-14.85 32.62-12.05L32.62-12.05Q32.62-9.2 33.59-7.15 34.55-5.1 36.16-4 37.77-2.9 39.72-2.9L39.72-2.9Q41.35-2.9 42.86-3.75 44.37-4.6 45.35-6.24 46.32-7.88 46.32-10.2L46.32-10.2 47.82-10.2Q47.82-6.73 46.69-4.31 45.55-1.9 43.61-0.65 41.67 0.6 39.27 0.6ZM50.22 0L46.97 0 46.32-5.6 46.32-34.1 50.22-34.1 50.22 0ZM76.59 0L76.59-23.95 80.5-23.95 80.5 0 76.59 0ZM59.65-8.75L59.65-23.95 63.55-23.95 63.55-9.05Q63.55-6.05 65.01-4.5 66.47-2.95 69.2-2.95L69.2-2.95Q71.45-2.95 73.11-4.15 74.77-5.35 75.68-7.46 76.59-9.58 76.59-12.3L76.59-12.3 78.05-12.3Q78.05-8.28 76.88-5.43 75.72-2.58 73.61-1.06 71.5 0.45 68.65 0.45L68.65 0.45Q65.95 0.45 63.92-0.55 61.9-1.55 60.77-3.59 59.65-5.63 59.65-8.75L59.65-8.75ZM99.22 0.6L99.22 0.6Q95.74 0.6 93.42-0.39 91.09-1.38 89.89-3.11 88.69-4.85 88.62-7.1L88.62-7.1 92.37-7.1Q92.49-4.83 94.21-3.69 95.92-2.55 98.87-2.55L98.87-2.55Q100.42-2.55 101.72-3.05 103.02-3.55 103.79-4.42 104.57-5.3 104.57-6.4L104.57-6.4Q104.57-7.8 103.54-8.6 102.52-9.4 100.27-10L100.27-10 95.62-11.5Q92.59-12.45 90.98-14.11 89.37-15.78 89.37-18.1L89.37-18.1Q89.37-21 91.92-22.75 94.47-24.5 98.62-24.5L98.62-24.5Q103.02-24.5 105.44-22.7 107.87-20.9 107.97-18.2L107.97-18.2 104.12-18.2Q103.89-19.78 102.52-20.59 101.14-21.4 98.62-21.4L98.62-21.4Q96.19-21.4 94.83-20.31 93.47-19.23 93.47-17.9L93.47-17.9Q93.47-15.43 97.72-14.25L97.72-14.25 102.47-12.65Q105.54-11.73 107.18-10.23 108.82-8.72 108.82-6.4L108.82-6.4Q108.82-4.6 107.64-3 106.47-1.4 104.32-0.4 102.17 0.6 99.22 0.6ZM125.19 0.6L125.19 0.6Q122.09 0.6 119.65-0.99 117.22-2.58 115.8-5.4 114.39-8.22 114.39-11.9L114.39-11.9Q114.39-15.83 115.79-18.65 117.19-21.48 119.63-22.99 122.07-24.5 125.19-24.5L125.19-24.5Q127.92-24.5 129.84-23.4 131.77-22.3 132.94-20.43 134.12-18.55 134.58-16.19 135.04-13.83 134.84-11.3L134.84-11.3 117.54-11.3 117.54-13.7 132.27-13.7 131.12-12.95Q131.19-14.43 130.95-15.9 130.72-17.38 130.07-18.61 129.42-19.85 128.24-20.6 127.07-21.35 125.24-21.35L125.24-21.35Q122.94-21.35 121.39-20.18 119.84-19 119.07-17.09 118.29-15.18 118.29-12.95L118.29-12.95 118.29-11.35Q118.29-8.85 119.05-6.88 119.82-4.9 121.34-3.75 122.87-2.6 125.19-2.6L125.19-2.6Q127.52-2.6 129.02-3.73 130.52-4.85 130.84-7.05L130.84-7.05 134.89-7.05Q134.52-4.67 133.19-2.96 131.87-1.25 129.82-0.33 127.77 0.6 125.19 0.6ZM151.16 0.6L151.16 0.6Q147.69 0.6 145.36-0.39 143.04-1.38 141.84-3.11 140.64-4.85 140.56-7.1L140.56-7.1 144.31-7.1Q144.44-4.83 146.15-3.69 147.86-2.55 150.81-2.55L150.81-2.55Q152.36-2.55 153.66-3.05 154.96-3.55 155.74-4.42 156.51-5.3 156.51-6.4L156.51-6.4Q156.51-7.8 155.49-8.6 154.46-9.4 152.21-10L152.21-10 147.56-11.5Q144.54-12.45 142.93-14.11 141.31-15.78 141.31-18.1L141.31-18.1Q141.31-21 143.86-22.75 146.41-24.5 150.56-24.5L150.56-24.5Q154.96-24.5 157.39-22.7 159.81-20.9 159.91-18.2L159.91-18.2 156.06-18.2Q155.84-19.78 154.46-20.59 153.09-21.4 150.56-21.4L150.56-21.4Q148.14-21.4 146.78-20.31 145.41-19.23 145.41-17.9L145.41-17.9Q145.41-15.43 149.66-14.25L149.66-14.25 154.41-12.65Q157.49-11.73 159.13-10.23 160.76-8.72 160.76-6.4L160.76-6.4Q160.76-4.6 159.59-3 158.41-1.4 156.26-0.4 154.11 0.6 151.16 0.6ZM177.44 0.6L177.44 0.6Q173.96 0.6 171.64-0.39 169.31-1.38 168.11-3.11 166.91-4.85 166.84-7.1L166.84-7.1 170.59-7.1Q170.71-4.83 172.42-3.69 174.14-2.55 177.09-2.55L177.09-2.55Q178.64-2.55 179.94-3.05 181.24-3.55 182.01-4.42 182.79-5.3 182.79-6.4L182.79-6.4Q182.79-7.8 181.76-8.6 180.74-9.4 178.49-10L178.49-10 173.84-11.5Q170.81-12.45 169.2-14.11 167.59-15.78 167.59-18.1L167.59-18.1Q167.59-21 170.14-22.75 172.69-24.5 176.84-24.5L176.84-24.5Q181.24-24.5 183.66-22.7 186.09-20.9 186.19-18.2L186.19-18.2 182.34-18.2Q182.11-19.78 180.74-20.59 179.36-21.4 176.84-21.4L176.84-21.4Q174.41-21.4 173.05-20.31 171.69-19.23 171.69-17.9L171.69-17.9Q171.69-15.43 175.94-14.25L175.94-14.25 180.69-12.65Q183.76-11.73 185.4-10.23 187.04-8.72 187.04-6.4L187.04-6.4Q187.04-4.6 185.86-3 184.69-1.4 182.54-0.4 180.39 0.6 177.44 0.6ZM197.31-29.55L197.31-29.55Q196.11-29.55 195.41-30.24 194.71-30.93 194.71-32.05L194.71-32.05Q194.71-33.15 195.41-33.8 196.11-34.45 197.31-34.45L197.31-34.45Q198.51-34.45 199.21-33.8 199.91-33.15 199.91-32.05L199.91-32.05Q199.91-30.93 199.21-30.24 198.51-29.55 197.31-29.55ZM199.26 0L195.36 0 195.36-23.95 199.26-23.95 199.26 0ZM218.66 0.6L218.66 0.6Q215.43 0.6 212.92-0.83 210.41-2.25 208.96-5.05 207.51-7.85 207.51-11.95L207.51-11.95Q207.51-16.07 208.96-18.86 210.41-21.65 212.92-23.08 215.43-24.5 218.66-24.5L218.66-24.5Q221.86-24.5 224.37-23.08 226.88-21.65 228.32-18.86 229.76-16.07 229.76-11.95L229.76-11.95Q229.76-7.85 228.32-5.05 226.88-2.25 224.37-0.83 221.86 0.6 218.66 0.6ZM218.56-2.8L218.56-2.8Q220.88-2.8 222.51-3.91 224.13-5.03 224.97-7.08 225.81-9.13 225.81-11.95L225.81-11.95Q225.81-16.23 224.03-18.69 222.26-21.15 218.76-21.15L218.76-21.15Q216.41-21.15 214.79-20.04 213.18-18.93 212.34-16.86 211.51-14.8 211.51-11.95L211.51-11.95Q211.51-7.73 213.29-5.26 215.08-2.8 218.56-2.8ZM258.18 0L254.33 0 254.33-14.05Q254.33-17.48 252.69-19.26 251.05-21.05 248.23-21.05L248.23-21.05Q246.08-21.05 244.5-19.88 242.93-18.7 242.08-16.51 241.23-14.33 241.23-11.3L241.23-11.3 239.73-11.3Q239.73-15.48 240.83-18.43 241.93-21.38 244.04-22.94 246.15-24.5 249.18-24.5L249.18-24.5Q252-24.5 254.02-23.24 256.03-21.98 257.1-19.63 258.18-17.28 258.18-14.05L258.18-14.05 258.18 0ZM241.23 0L237.33 0 237.33-23.9 240.68-23.9 241.23-18.4 241.23 0Z" fill="#000000" data-fill-palette-color="primary"></path></g></svg></g></svg></g><g transform="matrix(1,0,0,1,312.97667552375844,67.02793632769803)"><svg viewBox="0 0 82.54332447624154 33.51190756111872" height="33.51190756111872" width="82.54332447624154"><g transform="matrix(1,0,0,1,0,0)"><svg width="82.54332447624154" viewBox="5 -39.05 96.79 39.3" height="33.51190756111872" data-palette-color="#ff851b"><path d="M28.4 0L7.15 0Q6.25 0 5.63-0.63 5-1.25 5-2.15L5-2.15 5-36.9Q5-37.8 5.63-38.43 6.25-39.05 7.15-39.05L7.15-39.05Q8.05-39.05 8.68-38.43 9.3-37.8 9.3-36.9L9.3-36.9 9.3-4.2 28.4-4.2Q29.3-4.2 29.93-3.6 30.55-3 30.55-2.1L30.55-2.1Q30.55-1.2 29.93-0.6 29.3 0 28.4 0L28.4 0ZM39.15 0L39.15 0Q38.2 0 37.6-0.6 37-1.2 37-2.15L37-2.15 37-25.2Q37-26.2 37.6-26.78 38.2-27.35 39.15-27.35L39.15-27.35Q40.1-27.35 40.67-26.78 41.25-26.2 41.25-25.2L41.25-25.2 41.25-2.15Q41.25-1.2 40.67-0.6 40.1 0 39.15 0ZM39.1-32.3L39.1-32.3Q37.9-32.3 37.05-33.15 36.2-34 36.2-35.25L36.2-35.25Q36.2-36.5 37.07-37.33 37.95-38.15 39.15-38.15L39.15-38.15Q40.3-38.15 41.17-37.33 42.05-36.5 42.05-35.25L42.05-35.25Q42.05-34 41.17-33.15 40.3-32.3 39.1-32.3ZM60.25 0L60.25 0Q58.95 0 58.25-1.45L58.25-1.45 47.34-24.6Q46.99-25.3 47.27-26 47.55-26.7 48.34-27.1L48.34-27.1Q49.09-27.5 49.82-27.23 50.55-26.95 50.95-26.25L50.95-26.25 61.34-3.75 59.2-3.75 69.44-26.25Q69.8-27 70.59-27.25 71.4-27.5 72.15-27.15L72.15-27.15Q72.94-26.75 73.19-26.03 73.44-25.3 73.15-24.6L73.15-24.6 62.3-1.45Q61.65 0 60.25 0ZM90.04 0.25L90.04 0.25Q85.94 0.25 82.79-1.53 79.64-3.3 77.84-6.45 76.04-9.6 76.04-13.65L76.04-13.65Q76.04-17.75 77.74-20.88 79.44-24 82.42-25.8 85.39-27.6 89.29-27.6L89.29-27.6Q93.14-27.6 95.94-25.88 98.74-24.15 100.27-21.1 101.79-18.05 101.79-14.15L101.79-14.15Q101.79-13.3 101.24-12.78 100.69-12.25 99.84-12.25L99.84-12.25 78.94-12.25 78.94-15.7 100.04-15.7 97.94-14.2Q97.94-16.95 96.89-19.15 95.84-21.35 93.92-22.6 91.99-23.85 89.29-23.85L89.29-23.85Q86.44-23.85 84.34-22.53 82.24-21.2 81.09-18.9 79.94-16.6 79.94-13.65L79.94-13.65Q79.94-10.7 81.24-8.43 82.54-6.15 84.82-4.83 87.09-3.5 90.04-3.5L90.04-3.5Q91.74-3.5 93.52-4.1 95.29-4.7 96.34-5.6L96.34-5.6Q96.94-6.1 97.72-6.13 98.49-6.15 99.04-5.7L99.04-5.7Q99.74-5.05 99.77-4.28 99.79-3.5 99.14-2.95L99.14-2.95Q97.44-1.55 94.92-0.65 92.39 0.25 90.04 0.25Z" opacity="1" transform="matrix(1,0,0,1,0,0)" fill="#000000" class="undefined-text-1" data-fill-palette-color="secondary" id="text-1"></path></svg></g></svg></g></svg></g></svg></g><g transform="matrix(1,0,0,1,421.12309737669466,0)"><svg viewBox="0 0 229.47754030042762 229.47754030042762" height="229.47754030042762" width="229.47754030042762"><g><svg></svg></g><g id="icon-0"><svg viewBox="0 0 229.47754030042762 229.47754030042762" height="229.47754030042762" width="229.47754030042762"><g><path d="M0 114.739c0-63.368 51.37-114.739 114.739-114.739 63.368 0 114.739 51.37 114.739 114.739 0 63.368-51.37 114.739-114.739 114.739-63.368 0-114.739-51.37-114.739-114.739zM114.739 224.587c60.668 0 109.849-49.181 109.848-109.848 0-60.668-49.181-109.849-109.848-109.849-60.668 0-109.849 49.181-109.849 109.849 0 60.668 49.181 109.849 109.849 109.848z" data-fill-palette-color="accent" fill="#000000" stroke="transparent"></path></g><g transform="matrix(1,0,0,1,46.3700912188835,46.90422152303452)"><svg viewBox="0 0 136.73735786266062 135.66909725435858" height="135.66909725435858" width="136.73735786266062"><g><svg xmlns="http://www.w3.org/2000/svg" xmlns:xlink="http://www.w3.org/1999/xlink" version="1.1" x="0" y="0" viewBox="2 2.5 128 127" style="enable-background:new 0 0 132 132;" xml:space="preserve" height="135.66909725435858" width="136.73735786266062" class="icon-gn-0" data-fill-palette-color="accent" id="gn-0"><g fill="#5658dd" data-fill-palette-color="accent"><path d="M2 114.4c0 0.5 0.4 1 1 1h126c0.5 0 1-0.4 1-1 0-0.5-0.4-1-1-1H3C2.4 113.4 2 113.9 2 114.4z" fill="#000000" data-fill-palette-color="accent"></path><path d="M129 120.5H3c-0.5 0-1 0.4-1 1s0.4 1 1 1h126c0.5 0 1-0.4 1-1S129.6 120.5 129 120.5z" fill="#000000" data-fill-palette-color="accent"></path><path d="M129 127.5H3c-0.5 0-1 0.4-1 1s0.4 1 1 1h126c0.5 0 1-0.4 1-1S129.6 127.5 129 127.5z" fill="#000000" data-fill-palette-color="accent"></path><path d="M72.3 29.4L72.3 29.4c-0.1 0-0.1-0.1-0.2-0.1 0 0-0.1 0-0.1 0 0 0-0.1 0-0.1-0.1-1.8-0.6-3.8-1-5.9-1-9.2 0-16.9 6.9-18 15.8 0 0.1 0 0.1 0 0.2-0.1 0.7-0.1 1.4-0.1 2.2 0 10.4 8.4 23.1 18.2 23.1 9.8 0 18.2-12.7 18.2-23.1C84.2 38.7 79.3 32 72.3 29.4zM66 67.6c-8.6 0-16.2-11.8-16.2-21.1 0-0.5 0-1 0.1-1.4 4.6-1.6 12.5-5 19.8-11.7-1 4.8 0.5 11.5 11.8 18.3C79.5 59.7 73 67.6 66 67.6z" fill="#000000" data-fill-palette-color="accent"></path><path d="M26.3 17.5c-0.4-0.4-1-0.4-1.4 0l-7.8 7.8c-0.4 0.4-0.4 1 0 1.4 0.2 0.2 0.4 0.3 0.7 0.3 0.3 0 0.5-0.1 0.7-0.3l7.8-7.8C26.7 18.5 26.7 17.9 26.3 17.5z" fill="#000000" data-fill-palette-color="accent"></path><path d="M19.9 40.6c0.3 0 0.5-0.1 0.7-0.3L39.9 21c0.4-0.4 0.4-1 0-1.4-0.4-0.4-1-0.4-1.4 0L19.2 38.9c-0.4 0.4-0.4 1 0 1.4C19.4 40.5 19.7 40.6 19.9 40.6z" fill="#000000" data-fill-palette-color="accent"></path><path d="M66 73.7c-2.5 0-5 0.2-7.4 0.6v34.4h14.7V74.3C71 73.9 68.5 73.7 66 73.7zM68.2 103.4h-4.3c-0.5 0-1-0.4-1-1 0-0.5 0.4-1 1-1h4.3c0.5 0 1 0.4 1 1C69.1 102.9 68.7 103.4 68.2 103.4zM68.2 96.2h-4.3c-0.5 0-1-0.4-1-1s0.4-1 1-1h4.3c0.5 0 1 0.4 1 1S68.7 96.2 68.2 96.2zM68.2 89h-4.3c-0.5 0-1-0.4-1-1 0-0.5 0.4-1 1-1h4.3c0.5 0 1 0.4 1 1C69.1 88.6 68.7 89 68.2 89zM68.2 81.8h-4.3c-0.5 0-1-0.4-1-1 0-0.6 0.4-1 1-1h4.3c0.5 0 1 0.4 1 1C69.1 81.4 68.7 81.8 68.2 81.8z" fill="#000000" data-fill-palette-color="accent"></path><path d="M56.7 74.7v34H29.9c-0.5 0-1-0.4-1-1C28.9 91.6 40.5 78.4 56.7 74.7z" fill="#000000" data-fill-palette-color="accent"></path><path d="M3 108.7h24.2c-0.1-0.3-0.2-0.6-0.2-1 0-2.4 0.2-4.7 0.7-6.9H10.9c-0.5 0-1-0.4-1-1V11.4c0-0.5 0.4-1 1-1h110.3c0.5 0 1 0.4 1 1v88.4c0 0.5-0.4 1-1 1h-16.8c0.5 2.2 0.7 4.5 0.7 6.9 0 0.3-0.1 0.7-0.2 1H129c0.5 0 1-0.4 1-1V3.5c0-0.5-0.4-1-1-1H3c-0.5 0-1 0.4-1 1v104.2C2 108.2 2.4 108.7 3 108.7z" fill="#000000" data-fill-palette-color="accent"></path><path d="M103.1 107.7c0 0.5-0.4 1-1 1H75.3v-34C91.5 78.4 103.1 91.6 103.1 107.7z" fill="#000000" data-fill-palette-color="accent"></path></g></svg></g></svg></g></svg></g></svg></g></svg></g><defs></defs></svg><rect width="395.52" height="139.5064060553052" fill="none" stroke="none" visibility="hidden"></rect></g></svg></g></svg>